<svg xmlns="http://www.w3.org/2000/svg" viewBox="0 0 276.88 52.77"><defs><style>.cls-1{fill:#cbbba0;}.cls-2{fill:#e71e85;}.cls-3{fill:#7b6d5b;}</style></defs><g id="Layer_2" data-name="Layer 2"><g id="Layer_1-2" data-name="Layer 1"><path class="cls-1" d="M159.47,10.27,156.59,24c-.86,4.13-4.37,8.07-8.88,8.07-2.4,0-4.32-1.11-4.32-3.46a26.45,26.45,0,0,1,.58-3.84l3.17-14.5h-4.09l-3,14.16a26.45,26.45,0,0,0-.72,4.85c0,4.37,2.26,6.39,6.91,6.39a11,11,0,0,0,8.84-4.32h.09l-.77,3.74h3.94l5.23-24.82Z"/><path class="cls-1" d="M179.2,9.7A9.22,9.22,0,0,0,171,13.83h-.1l.87-3.56h-3.84L160.67,44.6h4l2.64-13.3h.1c1,3.31,4.7,4.37,7.73,4.37,8.69,0,13.77-8.26,13.77-15.8C188.94,13.83,185.54,9.7,179.2,9.7ZM175,32.07c-4,0-6.24-2.74-6.24-6.44,0-5.18,3.51-12.33,9.7-12.33,4.46,0,6.38,2.54,6.38,6.57C184.86,25.35,181.5,32.07,175,32.07Z"/><path class="cls-1" d="M205.41,9.7a9.22,9.22,0,0,0-8.21,4.13h-.1l.87-3.56h-3.84L186.88,44.6h4l2.64-13.3h.1c1,3.31,4.7,4.37,7.72,4.37,8.69,0,13.78-8.26,13.78-15.8C215.15,13.83,211.74,9.7,205.41,9.7Zm-4.18,22.37c-4,0-6.24-2.74-6.24-6.44,0-5.18,3.5-12.33,9.7-12.33,4.46,0,6.38,2.54,6.38,6.57C211.07,25.35,207.71,32.07,201.23,32.07Z"/><polygon class="cls-1" points="222.4 0.81 215.2 35.09 219.28 35.09 226.48 0.81 222.4 0.81"/><polygon class="cls-1" points="234.88 0.81 230.75 0.81 229.69 5.81 233.82 5.81 234.88 0.81"/><polygon class="cls-1" points="228.78 10.27 223.59 35.09 227.68 35.09 232.86 10.27 228.78 10.27"/><path class="cls-1" d="M243.23,32.07c-3.31,0-6.43-2.16-6.43-6a15.67,15.67,0,0,1,.14-2.16h18.67a15.44,15.44,0,0,0,.39-3.22c0-7-3.22-11-10.52-11-6.81,0-12.76,6.48-12.76,16,0,4.32,2.3,10,10.51,10,5.42,0,9.94-2.88,11.23-8.36h-4.08A7,7,0,0,1,243.23,32.07Zm2.88-18.77c4.51,0,6.09,3.5,5.81,7h-14.4C238.72,16.47,241.31,13.3,246.11,13.3Z"/><path class="cls-1" d="M268.91,21c-3.27-1.35-6.53-2.26-6.53-4.56,0-2.5,2.78-3.17,5.28-3.17,2.83,0,5.33,1.44,5.14,4.27h4.08c0-5.81-4.76-7.87-9.36-7.87s-9.22,2.54-9.22,7.15c0,3.74,3.26,5.42,6.58,6.72s6.52,2.3,6.52,4.7c0,2.84-3,3.8-5.66,3.8-3.41,0-6.53-1.11-6.34-4.8h-4.08c0,6.33,4.37,8.4,10,8.4,4.81,0,10.13-2.16,10.13-7.68C275.48,24.1,272.17,22.37,268.91,21Z"/><path class="cls-1" d="M129,16.23,124.43,15c-3.12-.87-5.57-2.21-5.57-5.52,0-4.08,4.56-5.62,7.92-5.62,4.71,0,8,1.68,7.88,7.1h4.56C139.46,3.31,133.55,0,126.78,0c-6.09,0-12.48,3.31-12.48,9.94,0,5,3.6,7.53,7.68,8.64l4.66,1.25c3.36.91,6.1,2.16,6.1,5.66,0,4.61-4.32,6.58-8.6,6.58-4.1,0-7.27-1.11-8.53-4.17l-4.06,2.21c2,4,6.6,5.8,12.4,5.8,6.19,0,13.35-3.36,13.35-10.42C137.3,19.35,133.31,17.38,129,16.23Z"/><path class="cls-2" d="M32.83,18c0,9.8-6.14,18-16.41,18S0,27.75,0,18,6.14,0,16.42,0,32.83,8.16,32.83,18ZM6,18C6,24.53,9.07,31,16.42,31S26.83,24.53,26.83,18s-3.07-13-10.41-13S6,11.38,6,18Z"/><path class="cls-2" d="M32.83,10.27h4.08V8.21c0-6.34,3.31-7.39,6.87-7.39a15.53,15.53,0,0,1,3.84.33V5.42a9.41,9.41,0,0,0-2.55-.28c-1.49,0-2.69.52-2.69,2.59v2.54H47v4.08H42.38V35.09H36.91V14.35H32.83Z"/><path class="cls-2" d="M44.83,10.27h4.08V8.21c0-6.34,3.31-7.39,6.87-7.39a15.53,15.53,0,0,1,3.84.33V5.42a9.41,9.41,0,0,0-2.55-.28c-1.49,0-2.69.52-2.69,2.59v2.54H59v4.08H54.38V35.09H48.91V14.35H44.83Z"/><path class="cls-2" d="M60.29.82h5.47V6H60.29Zm0,9.45h5.47V35.09H60.29Z"/><path class="cls-2" d="M86.21,18.58c-.43-3-2.64-4.66-5.67-4.66-2.83,0-6.81,1.49-6.81,9,0,4.12,1.82,8.49,6.57,8.49,3.17,0,5.38-2.11,5.91-5.66h5.47c-1,6.43-5,10-11.38,10-7.77,0-12-5.52-12-12.81,0-7.49,4.08-13.35,12.25-13.35,5.76,0,10.65,2.88,11.18,9Z"/><path class="cls-2" d="M98.16,24.1c0,3.89,2.11,7.34,6.67,7.34,3.17,0,5.09-1.39,6-4.13h5.18c-1.2,5.43-5.8,8.45-11.23,8.45-7.77,0-12.14-5.42-12.14-13,0-7.06,4.61-13.11,12-13.11,7.82,0,12.62,7.06,11.71,14.5Zm12.77-3.6c-.19-3.46-2.55-6.58-6.24-6.58a6.49,6.49,0,0,0-6.53,6.58Z"/><path class="cls-3" d="M2.26,45.26H1c.3-1.26.3-2.77,1.88-2.91l-.12.54C2.17,43,2,43.5,1.89,44h.64Zm2.05,0H3.06c.29-1.26.29-2.77,1.87-2.91l-.12.54C4.22,43,4.08,43.5,4,44h.63Z"/><path class="cls-3" d="M6.05,42.35H7.12l-1.69,8H4.35Z"/><path class="cls-3" d="M10.67,46.29c0-.67-.54-1-1.21-1s-1.24.16-1.24.75.77.75,1.54,1.07,1.54.72,1.54,1.63c0,1.3-1.25,1.81-2.38,1.81-1.33,0-2.37-.49-2.36-2h1c0,.87.69,1.13,1.49,1.13.62,0,1.33-.22,1.33-.89S9.57,48,8.81,47.7,7.26,47,7.26,46.12c0-1.09,1.09-1.68,2.17-1.68s2.2.48,2.2,1.85Z"/><path class="cls-3" d="M16.66,44.57h1.16l-.18.85H16.48l-.72,3.43a2.33,2.33,0,0,0,0,.38c0,.3.28.39.58.39a1.72,1.72,0,0,0,.55-.1l-.17.88a3.08,3.08,0,0,1-.68.07c-.71,0-1.3-.2-1.3-.95a2.7,2.7,0,0,1,.05-.48l.77-3.62h-1l.18-.85h1l.36-1.72h1Z"/><path class="cls-3" d="M18.84,42.35h.95l-.68,3.08,0,0a2.58,2.58,0,0,1,2.07-1c1.1,0,1.63.47,1.63,1.5a6.52,6.52,0,0,1-.17,1.14L22,50.4H21l.74-3.4a5.91,5.91,0,0,0,.14-.91c0-.55-.45-.81-1-.81a2.11,2.11,0,0,0-1.44.68,2.32,2.32,0,0,0-.64,1.22l-.68,3.22h-1Z"/><path class="cls-3" d="M24.09,44.57h1L23.83,50.4h-1Zm1.19-1h-1l.24-1.17h1Z"/><path class="cls-3" d="M28.91,46.29c0-.67-.54-1-1.21-1s-1.24.16-1.24.75.77.75,1.53,1.07,1.55.72,1.55,1.63c0,1.3-1.25,1.81-2.38,1.81-1.33,0-2.37-.49-2.36-2h1c0,.87.69,1.13,1.49,1.13.62,0,1.33-.22,1.33-.89s-.77-.79-1.53-1.1S25.5,47,25.5,46.12c0-1.09,1.08-1.68,2.17-1.68s2.2.48,2.2,1.85Z"/><path class="cls-3" d="M37.58,49.56a11.64,11.64,0,0,1-.45,1.59,2.6,2.6,0,0,1-2.65,1.62c-1.19,0-2.29-.51-2.32-1.8h1c.06.77.74,1,1.47,1,1.49,0,1.78-1.18,2.09-2.34l0,0a2.07,2.07,0,0,1-1.81.89A2.14,2.14,0,0,1,32.64,48c0-1.72,1.14-3.59,3-3.59a1.81,1.81,0,0,1,1.85,1.18v0h0l.18-1.07h.9ZM35,49.6c1.44,0,2.12-1.62,2.12-2.79a1.37,1.37,0,0,0-1.49-1.53C34.32,45.28,33.6,47,33.6,48A1.42,1.42,0,0,0,35,49.6Z"/><path class="cls-3" d="M41.8,44.44a2.18,2.18,0,0,1,2.42,2.41c0,1.91-1.18,3.69-3.22,3.69a2.31,2.31,0,0,1-2.46-2.44A3.4,3.4,0,0,1,41.8,44.44Zm-.7,5.25c1.4,0,2.16-1.61,2.16-2.76a1.48,1.48,0,0,0-1.53-1.65c-1.46,0-2.23,1.6-2.23,2.81A1.47,1.47,0,0,0,41.1,49.69Z"/><path class="cls-3" d="M47.74,44.44a2.18,2.18,0,0,1,2.43,2.41c0,1.91-1.19,3.69-3.23,3.69a2.31,2.31,0,0,1-2.46-2.44A3.4,3.4,0,0,1,47.74,44.44ZM47,49.69c1.4,0,2.17-1.61,2.17-2.76a1.48,1.48,0,0,0-1.54-1.65c-1.46,0-2.23,1.6-2.23,2.81A1.47,1.47,0,0,0,47,49.69Z"/><path class="cls-3" d="M55.37,50.4h-.91l.21-.83h0a2.19,2.19,0,0,1-1.93,1,2.16,2.16,0,0,1-2.29-2.39c0-1.77,1.19-3.71,3.23-3.71a1.76,1.76,0,0,1,1.82,1h0l.62-3.11h1Zm-2.48-.71c1.45,0,2.27-1.68,2.27-2.9a1.39,1.39,0,0,0-1.46-1.51c-1.52,0-2.31,1.58-2.31,2.87A1.36,1.36,0,0,0,52.89,49.69Z"/><path class="cls-3" d="M60.34,45.42h-1l.17-.85h1c.3-1.18.35-2.31,1.88-2.31a3,3,0,0,1,.8.09l-.15.81a2.38,2.38,0,0,0-.45,0c-1,0-.91.75-1.13,1.46h1.11l-.15.85H61.29l-1.07,5h-1Z"/><path class="cls-3" d="M65.26,44.44a2.18,2.18,0,0,1,2.42,2.41c0,1.91-1.18,3.69-3.22,3.69A2.31,2.31,0,0,1,62,48.1,3.4,3.4,0,0,1,65.26,44.44Zm-.7,5.25c1.4,0,2.16-1.61,2.16-2.76a1.48,1.48,0,0,0-1.53-1.65c-1.46,0-2.23,1.6-2.23,2.81A1.47,1.47,0,0,0,64.56,49.69Z"/><path class="cls-3" d="M68.91,44.57h.91l-.29,1.25h0a2.39,2.39,0,0,1,2.12-1.38,1.22,1.22,0,0,1,.33,0l-.22,1h-.28a1.88,1.88,0,0,0-.58.06,2.09,2.09,0,0,0-1.24,1,3.81,3.81,0,0,0-.48,1.36l-.56,2.58h-1Z"/><path class="cls-3" d="M76.08,44.57h1.16l-.18.85H75.89l-.72,3.43c0,.13,0,.24,0,.38,0,.3.28.39.57.39a1.74,1.74,0,0,0,.56-.1l-.17.88a3.14,3.14,0,0,1-.68.07c-.71,0-1.31-.2-1.31-.95a2.74,2.74,0,0,1,.06-.48l.77-3.62H74l.18-.85h1l.36-1.72h1Z"/><path class="cls-3" d="M78.25,42.35h1l-.69,3.08,0,0a2.58,2.58,0,0,1,2.07-1c1.09,0,1.62.47,1.62,1.5a5.68,5.68,0,0,1-.17,1.14l-.71,3.32h-1l.74-3.4a5.91,5.91,0,0,0,.14-.91c0-.55-.46-.81-1-.81a2.11,2.11,0,0,0-1.44.68,2.41,2.41,0,0,0-.65,1.22l-.67,3.22h-1Z"/><path class="cls-3" d="M83.45,47.77a4.36,4.36,0,0,0,0,.51,1.42,1.42,0,0,0,1.51,1.41,1.65,1.65,0,0,0,1.68-1.12h1a2.55,2.55,0,0,1-2.64,2,2.23,2.23,0,0,1-2.47-2.35c0-2.23,1.4-3.75,3-3.75s2.47.93,2.47,2.58a3.92,3.92,0,0,1-.09.75ZM87,46.93a1.35,1.35,0,0,0-1.36-1.65,2.07,2.07,0,0,0-2,1.65Z"/><path class="cls-3" d="M95.17,46.42a1.1,1.1,0,0,0-1.23-1.14A2.53,2.53,0,0,0,91.67,48c0,.9.38,1.67,1.45,1.67a1.77,1.77,0,0,0,1.7-1.19h1a2.6,2.6,0,0,1-2.66,2A2.23,2.23,0,0,1,90.72,48a3.29,3.29,0,0,1,3.22-3.58,1.92,1.92,0,0,1,2.19,2Z"/><path class="cls-3" d="M99.46,44.44a2.18,2.18,0,0,1,2.42,2.41c0,1.91-1.18,3.69-3.22,3.69A2.31,2.31,0,0,1,96.2,48.1,3.4,3.4,0,0,1,99.46,44.44Zm-.7,5.25c1.4,0,2.16-1.61,2.16-2.76a1.48,1.48,0,0,0-1.53-1.65c-1.47,0-2.23,1.6-2.23,2.81A1.47,1.47,0,0,0,98.76,49.69Z"/><path class="cls-3" d="M103.13,44.57H104l-.21.87,0,0a2.66,2.66,0,0,1,2-1,1.32,1.32,0,0,1,1.47,1.05,2.52,2.52,0,0,1,2-1.05c.83,0,1.63.36,1.63,1.3a5.8,5.8,0,0,1-.17,1.17l-.73,3.49h-1l.81-3.7a3.54,3.54,0,0,0,.09-.63.82.82,0,0,0-.89-.79,2.11,2.11,0,0,0-1.47.8,2.71,2.71,0,0,0-.54,1.31l-.64,3h-1l.7-3.32a8.22,8.22,0,0,0,.18-1,.72.72,0,0,0-.81-.77,2.07,2.07,0,0,0-1.43.75,2.13,2.13,0,0,0-.62,1.32l-.66,3h-1Z"/><path class="cls-3" d="M112.18,44.57h.9l-.2.84h0a2.33,2.33,0,0,1,4.22,1.42c0,1.77-1.2,3.71-3.24,3.71a1.74,1.74,0,0,1-1.81-1h0l-.62,3.12h-.94Zm2.48.71c-1.45,0-2.28,1.68-2.28,2.9a1.39,1.39,0,0,0,1.47,1.51c1.52,0,2.31-1.58,2.31-2.86A1.36,1.36,0,0,0,114.66,45.28Z"/><path class="cls-3" d="M117.79,46.33a2.29,2.29,0,0,1,2.52-1.89c1.13,0,2.13.3,2.13,1.49a5.37,5.37,0,0,1-.18,1l-.37,1.59a4.46,4.46,0,0,0-.16.84c0,.27.13.36.28.36a.89.89,0,0,0,.31-.08l-.15.71a1.5,1.5,0,0,1-.58.14.69.69,0,0,1-.76-.83l0,0a2.2,2.2,0,0,1-2,.85,1.57,1.57,0,0,1-1.79-1.65c0-1.69,1.66-1.8,3-1.92,1-.09,1.46-.14,1.46-.92,0-.63-.66-.77-1.17-.77-.73,0-1.45.3-1.57,1Zm1.29,3.36a1.81,1.81,0,0,0,1.64-.77,4.1,4.1,0,0,0,.5-1.49h0a6,6,0,0,1-1.87.39c-.69.1-1.3.32-1.3,1.06C118,49.42,118.54,49.69,119.08,49.69Z"/><path class="cls-3" d="M123.68,44.57h.93l-.18.88h0a2.61,2.61,0,0,1,2.08-1c1.09,0,1.62.47,1.62,1.5a6.52,6.52,0,0,1-.17,1.14l-.71,3.32h-1l.75-3.4a7.38,7.38,0,0,0,.13-.91c0-.55-.45-.81-1-.81a2.13,2.13,0,0,0-1.45.68,2.32,2.32,0,0,0-.64,1.22l-.68,3.22h-1Z"/><path class="cls-3" d="M130.09,51.39c-.47.76-.9,1.38-1.88,1.38a1.61,1.61,0,0,1-.67-.15l.17-.77a1.33,1.33,0,0,0,.55.15,1.05,1.05,0,0,0,.91-.63l.58-1-1-5.83h1l.68,4.64h0l2.45-4.64h1Z"/><path class="cls-3" d="M134.12,44.9a2.69,2.69,0,0,1,2.73-2.64c1.12,0,2.33.59,2.33,1.86,0,2.32-2.47,2.28-2.84,4l-.05.25h-.93a3.12,3.12,0,0,1,.56-1.46,5.07,5.07,0,0,1,1.17-1,2.06,2.06,0,0,0,1.08-1.58,1.14,1.14,0,0,0-1.3-1.18,1.79,1.79,0,0,0-1.79,1.79Zm.93,4.25h1.25L136,50.4h-1.25Z"/><path class="cls-3" d="M140.47,42.35h1.25c-.29,1.26-.29,2.77-1.87,2.91l.11-.54c.6-.09.73-.61.87-1.12h-.63Zm2.05,0h1.25c-.29,1.26-.29,2.77-1.87,2.91l.11-.54c.6-.09.74-.61.87-1.12h-.63Z"/></g></g></svg>